<svg width="400" height="400" viewBox="0 0 400 400" fill="none" xmlns="http://www.w3.org/2000/svg">
<rect width="400" height="400" rx="10" fill="#FFDA55"/>
<path d="M0 0V400H400V0H0ZM217.791 299.884C217.791 349.07 193.953 365.465 158.605 365.465C149.367 365.453 140.187 364.001 131.395 361.163L135.349 334.884C141.784 337.088 148.546 338.189 155.349 338.14C173.953 338.14 185.233 329.767 185.233 298.837V184.419H217.791V299.884ZM293.605 365.233C276.859 365.264 260.35 361.276 245.465 353.605L252.674 326.628C265.818 334.04 280.61 338.038 295.698 338.256C316.279 338.372 327.907 328.605 327.907 314.07C327.907 299.535 319.07 293.023 296.512 284.535C267.093 274.07 248.372 258.256 248.372 232.791C248.372 203.605 272.674 181.628 311.395 181.628C326.117 181.18 340.737 184.207 354.07 190.465L346.279 216.628C335.261 211.025 323.058 208.154 310.698 208.256C290 208.256 281.279 219.186 281.279 229.651C281.279 243.372 291.628 249.767 315.349 258.837C346.279 270.465 361.163 286.163 361.163 311.744C361.163 340.465 339.535 365.233 293.605 365.233Z" fill="#0D0D0D"/>
<g clip-path="url(#clip0)">
<path d="M285.144 161.822C269.991 165.32 256.716 170.304 247.087 175.653L246.933 174.983C237.385 180.682 231.88 186.809 233.057 191.906C233.242 192.709 233.603 193.46 234.094 194.164L233.475 196.301C233.475 196.301 232.882 197.602 234.921 199.588C236.72 201.339 245.21 207.859 249.683 211.267C251.685 213.081 253.012 214.177 253.072 214.028C253.165 213.791 251.154 209.982 247.1 206.041C245.133 203.876 242.677 200.973 241.117 198.771C244.311 199.891 248.398 200.634 252.947 201.034L252.942 201.013C263.941 201.601 278.057 200.26 293.21 196.762C310.553 192.758 325.561 186.78 335.139 180.607L329.911 157.962C318.597 156.612 302.486 157.818 285.144 161.822Z" fill="#A52B00"/>
<path d="M348.925 169.22L346.299 165.951C346.276 165.809 346.251 165.668 346.218 165.527C345.255 161.356 340.03 158.513 332.021 157.12L337.144 179.308C340.217 177.085 342.61 174.845 344.187 172.663C344.145 175.135 343.249 180.324 342.431 184.016C340.924 189.376 340.936 193.735 341.105 193.912C341.212 194.024 341.784 192.447 342.582 189.922C344.629 184.871 348.494 175.237 349.162 172.856C349.917 170.158 348.925 169.22 348.925 169.22Z" fill="#A52B00"/>
<path d="M359.242 166.816L345.582 160.911C345.383 160.554 345.185 160.197 344.985 159.843L347.537 153.402C347.798 152.746 347.707 151.994 347.304 151.408C346.902 150.825 346.239 150.494 345.554 150.534L338.815 150.93C338.446 150.475 338.066 150.031 337.686 149.592L338.97 142.725C339.104 142.025 338.874 141.3 338.369 140.81C337.866 140.315 337.159 140.122 336.495 140.303L329.969 142.062C329.526 141.697 329.079 141.337 328.626 140.987L328.595 133.952C328.591 133.238 328.234 132.572 327.647 132.188C327.064 131.805 326.333 131.759 325.72 132.069L319.674 135.124C319.174 134.853 318.669 134.589 318.16 134.333L316.806 127.416C316.671 126.715 316.194 126.13 315.549 125.873C314.904 125.613 314.184 125.717 313.643 126.146L308.319 130.37C307.774 130.205 307.227 130.043 306.676 129.891L304.058 123.372C303.792 122.711 303.217 122.231 302.538 122.108C301.861 121.982 301.176 122.232 300.729 122.764L296.321 127.995C295.756 127.942 295.19 127.896 294.619 127.86L290.84 121.976C290.456 121.377 289.806 121.021 289.118 121.037C288.432 121.055 287.811 121.437 287.474 122.049L284.145 128.106C283.588 128.169 283.032 128.238 282.477 128.316L277.664 123.278C277.176 122.767 276.473 122.551 275.805 122.705C275.138 122.859 274.6 123.362 274.389 124.034L272.27 130.672C271.737 130.845 271.204 131.028 270.677 131.216L265.029 127.231C264.458 126.829 263.729 126.758 263.108 127.042C262.482 127.331 262.054 127.934 261.972 128.641L261.153 135.586C260.657 135.869 260.168 136.159 259.682 136.454L253.429 133.684C252.792 133.401 252.067 133.477 251.512 133.888C250.959 134.296 250.651 134.98 250.702 135.69L251.206 142.697C250.778 143.075 250.357 143.459 249.938 143.848L243.302 142.386C242.628 142.236 241.933 142.46 241.469 142.975C241.003 143.489 240.831 144.224 241.016 144.913L242.83 151.724C242.487 152.177 242.149 152.636 241.817 153.099L235.044 153.003C234.356 152.995 233.72 153.355 233.362 153.955C233.002 154.558 232.974 155.313 233.283 155.956L236.336 162.293C236.086 162.808 235.841 163.326 235.603 163.848L228.967 165.128C228.298 165.262 227.741 165.74 227.504 166.405C227.265 167.067 227.379 167.819 227.802 168.39L231.969 173.998C231.82 174.56 231.673 175.126 231.539 175.697L225.308 178.295C224.675 178.558 224.226 179.146 224.118 179.848C224.012 180.551 224.264 181.266 224.784 181.742L229.902 186.412C229.895 186.517 229.891 186.622 229.884 186.727L221.698 200.751C221.698 200.751 220.338 202.437 223.463 204.94C226.221 207.147 239.648 215.323 246.728 219.595C249.83 221.878 251.911 223.254 252.05 223.062C252.271 222.756 249.626 217.91 243.409 212.944C238.44 208.347 231.688 201.072 232.594 199.845C232.594 199.845 233.502 197.918 235.808 196.149C235.92 196.203 235.693 196.097 235.808 196.149C235.808 196.149 295.987 208.681 340.742 172.37C346.267 170.006 350.468 172.288 350.468 172.288C351.832 172.708 350.708 182.051 349.464 188.351C347.476 195.637 348.133 200.813 348.469 200.92C348.681 200.989 349.503 198.767 350.603 195.279C353.629 188.031 359.328 174.231 360.207 170.995C361.204 167.327 359.242 166.816 359.242 166.816Z" fill="#F74C00"/>
<path d="M312.402 194.369C312.569 194.144 312.654 194.013 312.654 194.013L294.468 196.47C304.574 173.944 319.776 186.725 321.409 188.146L322.318 192.08L312.402 194.369Z" fill="black"/>
<path d="M239.11 189.044C239.11 189.044 223.1 186.717 219.196 181.135C219.196 181.135 233.271 163.44 209.279 153.635L213.006 172.331C213.006 172.331 205.532 167.846 203.418 157.458C203.418 157.458 186.519 170.995 212.503 182.043C212.503 182.043 215.259 190.557 237.687 196.426L239.11 189.044Z" fill="#F74C00"/>
<path d="M297 167.415C297 167.415 301.061 160.208 307.87 164.905C307.87 164.905 313.973 171.854 310.618 176.808C310.618 176.808 304.912 183.976 299.748 179.317C299.748 179.317 294.081 176.029 297 167.415Z" fill="black"/>
<path d="M303.826 168.167C304.361 170.484 303.429 172.678 301.744 173.067C300.059 173.455 298.26 171.892 297.725 169.575C297.19 167.257 298.122 165.063 299.806 164.674C301.491 164.285 303.291 165.849 303.826 168.167Z" fill="white"/>
<path d="M272.376 171.387C272.376 171.387 280.746 165.106 285.418 173.733C285.418 173.733 290.563 183.856 280.381 186.846C280.381 186.846 266.633 187.349 272.376 171.387Z" fill="black"/>
<path d="M277.981 174.292C278.532 176.682 277.571 178.945 275.834 179.346C274.097 179.747 272.24 178.134 271.689 175.745C271.137 173.354 272.098 171.092 273.835 170.691C275.573 170.289 277.429 171.902 277.981 174.292Z" fill="white"/>
<path d="M335.35 169.194C335.35 169.194 335.193 177.398 324.967 188.341L321.755 189.921C321.755 189.921 306.147 172.427 295.797 198.591C295.797 198.591 299.995 194.648 313.79 195.085C313.79 195.085 309.922 205.619 297.81 208.119C297.81 208.119 312.553 219.304 325.503 195.242C325.503 195.242 342.417 183.772 340.37 168.035L335.35 169.194Z" fill="#F74C00"/>
<g clip-path="url(#clip1)">
<g filter="url(#filter0_i)">
<path d="M216.821 156.889L215.903 156.321C215.896 156.232 215.887 156.143 215.877 156.054L216.665 155.319C216.704 155.282 216.733 155.236 216.75 155.185C216.766 155.134 216.77 155.079 216.759 155.026C216.749 154.974 216.725 154.925 216.69 154.884C216.656 154.843 216.611 154.811 216.561 154.792L215.553 154.415C215.528 154.327 215.501 154.241 215.474 154.154L216.103 153.28C216.167 153.192 216.179 153.077 216.138 152.975C216.097 152.873 216.005 152.801 215.898 152.783L214.835 152.61C214.794 152.529 214.751 152.45 214.707 152.371L215.153 151.391C215.199 151.291 215.19 151.175 215.128 151.084C215.066 150.992 214.965 150.94 214.855 150.944L213.776 150.982C213.72 150.912 213.664 150.843 213.606 150.775L213.854 149.724C213.867 149.671 213.866 149.616 213.851 149.564C213.837 149.513 213.809 149.465 213.771 149.427C213.733 149.389 213.686 149.361 213.634 149.346C213.582 149.332 213.527 149.331 213.475 149.343L212.424 149.591C212.356 149.533 212.287 149.477 212.217 149.421L212.255 148.342C212.257 148.289 212.246 148.235 212.222 148.187C212.197 148.139 212.161 148.098 212.116 148.068C212.071 148.038 212.02 148.02 211.966 148.016C211.912 148.012 211.858 148.021 211.81 148.044L210.829 148.491C210.75 148.447 210.67 148.404 210.59 148.362L210.417 147.3C210.408 147.247 210.386 147.197 210.353 147.154C210.319 147.112 210.276 147.079 210.226 147.059C210.176 147.038 210.122 147.031 210.068 147.037C210.015 147.043 209.964 147.063 209.92 147.095L209.047 147.723C208.961 147.696 208.874 147.67 208.787 147.644L208.41 146.636C208.391 146.586 208.36 146.541 208.319 146.506C208.278 146.471 208.229 146.447 208.176 146.437C208.123 146.426 208.068 146.429 208.017 146.446C207.966 146.462 207.92 146.492 207.883 146.531L207.147 147.321C207.058 147.311 206.969 147.302 206.88 147.294L206.313 146.377C206.284 146.331 206.245 146.293 206.198 146.267C206.151 146.24 206.098 146.227 206.044 146.227C205.99 146.227 205.937 146.24 205.89 146.267C205.843 146.293 205.804 146.331 205.776 146.377L205.208 147.294C205.119 147.302 205.029 147.311 204.94 147.321L204.204 146.531C204.167 146.492 204.121 146.463 204.07 146.447C204.019 146.43 203.964 146.427 203.911 146.438C203.859 146.448 203.81 146.472 203.769 146.507C203.728 146.541 203.696 146.586 203.677 146.636L203.3 147.644C203.213 147.67 203.126 147.696 203.04 147.723L202.167 147.095C202.123 147.063 202.072 147.043 202.019 147.037C201.965 147.031 201.911 147.038 201.861 147.059C201.812 147.079 201.768 147.112 201.735 147.154C201.701 147.197 201.679 147.247 201.671 147.3L201.497 148.362C201.417 148.403 201.337 148.446 201.258 148.491L200.278 148.044C200.229 148.022 200.175 148.012 200.121 148.017C200.068 148.021 200.016 148.039 199.971 148.069C199.927 148.099 199.89 148.14 199.866 148.187C199.841 148.235 199.829 148.289 199.831 148.342L199.869 149.421C199.799 149.477 199.73 149.533 199.662 149.591L198.61 149.343C198.558 149.331 198.503 149.332 198.451 149.346C198.4 149.361 198.352 149.389 198.314 149.427C198.276 149.465 198.249 149.513 198.234 149.564C198.219 149.616 198.218 149.671 198.231 149.724L198.479 150.775C198.421 150.843 198.364 150.911 198.309 150.982L197.23 150.944C197.176 150.942 197.123 150.954 197.075 150.979C197.027 151.003 196.987 151.04 196.957 151.084C196.927 151.129 196.909 151.181 196.905 151.234C196.9 151.288 196.909 151.342 196.932 151.391L197.378 152.371C197.335 152.45 197.292 152.529 197.25 152.61L196.187 152.783C196.134 152.792 196.084 152.814 196.042 152.847C195.999 152.881 195.966 152.925 195.946 152.974C195.925 153.024 195.918 153.079 195.924 153.132C195.93 153.186 195.951 153.237 195.982 153.28L196.611 154.154C196.584 154.24 196.557 154.327 196.532 154.415L195.524 154.792C195.474 154.811 195.429 154.842 195.394 154.883C195.359 154.924 195.335 154.973 195.325 155.026C195.315 155.079 195.318 155.134 195.334 155.185C195.351 155.236 195.381 155.282 195.42 155.319L196.208 156.054C196.199 156.144 196.189 156.232 196.182 156.321L195.264 156.889C195.219 156.917 195.181 156.957 195.155 157.004C195.129 157.051 195.115 157.104 195.115 157.158C195.115 157.211 195.129 157.264 195.155 157.311C195.181 157.358 195.219 157.398 195.264 157.426L196.182 157.994C196.189 158.083 196.199 158.172 196.208 158.261L195.42 158.996C195.381 159.033 195.352 159.079 195.335 159.13C195.319 159.181 195.316 159.236 195.326 159.289C195.336 159.341 195.36 159.39 195.395 159.431C195.429 159.472 195.474 159.504 195.524 159.523L196.532 159.9C196.557 159.988 196.584 160.075 196.611 160.161L195.982 161.035C195.918 161.124 195.905 161.238 195.947 161.339C195.989 161.44 196.08 161.513 196.187 161.531L197.25 161.704C197.291 161.785 197.334 161.864 197.378 161.943L196.932 162.922C196.909 162.971 196.9 163.025 196.905 163.079C196.909 163.132 196.927 163.184 196.957 163.229C196.987 163.273 197.027 163.31 197.075 163.334C197.123 163.359 197.176 163.371 197.23 163.369L198.309 163.331C198.364 163.402 198.421 163.47 198.479 163.538L198.231 164.589C198.218 164.642 198.219 164.697 198.234 164.748C198.248 164.8 198.276 164.848 198.314 164.886C198.352 164.924 198.4 164.951 198.451 164.966C198.503 164.981 198.558 164.982 198.61 164.969L199.662 164.722C199.73 164.78 199.799 164.836 199.869 164.892L199.831 165.972C199.829 166.025 199.84 166.079 199.865 166.127C199.889 166.175 199.926 166.216 199.971 166.246C200.016 166.276 200.067 166.294 200.121 166.298C200.175 166.302 200.229 166.292 200.278 166.269L201.258 165.822C201.337 165.867 201.417 165.909 201.497 165.951L201.671 167.013C201.688 167.122 201.76 167.213 201.862 167.254C201.964 167.295 202.078 167.282 202.168 167.219L203.041 166.59C203.128 166.617 203.215 166.643 203.302 166.669L203.679 167.677C203.698 167.727 203.73 167.772 203.771 167.807C203.812 167.841 203.861 167.865 203.914 167.876C203.966 167.886 204.021 167.883 204.072 167.866C204.123 167.849 204.169 167.82 204.206 167.781L204.942 166.992C205.03 167.003 205.121 167.011 205.21 167.019L205.778 167.936C205.806 167.982 205.845 168.019 205.892 168.046C205.939 168.072 205.992 168.085 206.046 168.085C206.099 168.085 206.152 168.072 206.199 168.046C206.246 168.019 206.285 167.982 206.314 167.936L206.881 167.019C206.971 167.011 207.06 167.002 207.148 166.992L207.884 167.781C207.921 167.82 207.967 167.849 208.018 167.865C208.069 167.882 208.124 167.885 208.176 167.875C208.229 167.864 208.278 167.841 208.319 167.806C208.36 167.771 208.392 167.727 208.411 167.677L208.788 166.669C208.876 166.643 208.963 166.617 209.049 166.59L209.923 167.219C209.966 167.25 210.017 167.269 210.071 167.275C210.124 167.281 210.178 167.273 210.227 167.252C210.277 167.232 210.32 167.199 210.354 167.157C210.387 167.116 210.41 167.066 210.419 167.013L210.592 165.951L210.831 165.822L211.812 166.269C211.86 166.291 211.914 166.301 211.968 166.296C212.021 166.292 212.073 166.274 212.117 166.244C212.162 166.215 212.198 166.174 212.223 166.126C212.247 166.078 212.259 166.025 212.257 165.972L212.22 164.892C212.289 164.836 212.358 164.78 212.427 164.722L213.478 164.969C213.53 164.981 213.585 164.98 213.636 164.965C213.688 164.95 213.735 164.922 213.773 164.884C213.811 164.846 213.838 164.799 213.853 164.748C213.868 164.696 213.869 164.642 213.857 164.589L213.61 163.538C213.668 163.47 213.725 163.402 213.781 163.331L214.859 163.369C214.913 163.371 214.966 163.359 215.014 163.334C215.061 163.309 215.102 163.273 215.132 163.228C215.161 163.184 215.179 163.132 215.184 163.078C215.188 163.025 215.179 162.971 215.157 162.922L214.71 161.943L214.838 161.704L215.901 161.531C216.009 161.514 216.1 161.441 216.142 161.339C216.184 161.237 216.17 161.123 216.106 161.035L215.477 160.161C215.505 160.075 215.531 159.988 215.556 159.9L216.564 159.523C216.614 159.504 216.659 159.472 216.693 159.431C216.727 159.39 216.751 159.341 216.761 159.288C216.772 159.236 216.769 159.182 216.752 159.13C216.736 159.079 216.707 159.033 216.668 158.996L215.88 158.261L215.906 157.994L216.824 157.426C216.87 157.398 216.908 157.358 216.934 157.311C216.96 157.264 216.974 157.211 216.974 157.158C216.974 157.104 216.96 157.051 216.934 157.004C216.908 156.957 216.87 156.917 216.824 156.889L216.821 156.889ZM210.678 164.5C210.328 164.424 210.106 164.079 210.18 163.728C210.255 163.376 210.601 163.153 210.951 163.229C211.034 163.247 211.113 163.281 211.184 163.33C211.254 163.378 211.314 163.44 211.36 163.512C211.407 163.583 211.438 163.663 211.454 163.747C211.469 163.831 211.468 163.917 211.45 164.001C211.432 164.084 211.398 164.163 211.35 164.234C211.301 164.304 211.239 164.364 211.168 164.41C211.096 164.457 211.016 164.488 210.932 164.504C210.848 164.519 210.762 164.518 210.678 164.5ZM210.366 162.392C210.29 162.375 210.212 162.374 210.135 162.388C210.059 162.402 209.986 162.431 209.921 162.473C209.855 162.516 209.799 162.57 209.755 162.634C209.711 162.699 209.68 162.771 209.664 162.847L209.338 164.368C208.302 164.837 207.178 165.079 206.04 165.077C204.877 165.079 203.728 164.825 202.673 164.335L202.347 162.815C202.315 162.662 202.222 162.528 202.091 162.442C201.959 162.357 201.799 162.327 201.645 162.36L200.303 162.648C200.054 162.391 199.822 162.118 199.609 161.83L206.14 161.83C206.214 161.83 206.263 161.817 206.263 161.749L206.263 159.439C206.263 159.372 206.214 159.358 206.14 159.358L204.23 159.358L204.23 157.894L206.296 157.894C206.484 157.894 207.304 157.947 207.566 158.995C207.648 159.317 207.829 160.366 207.952 160.701C208.075 161.078 208.574 161.829 209.107 161.829L212.361 161.829C212.401 161.829 212.44 161.825 212.479 161.818C212.253 162.125 212.006 162.415 211.739 162.686L210.366 162.39L210.366 162.392ZM201.334 164.469C201.17 164.493 201.003 164.454 200.867 164.359C200.731 164.265 200.637 164.122 200.602 163.96C200.567 163.798 200.595 163.629 200.681 163.488C200.766 163.346 200.903 163.242 201.062 163.197C201.145 163.179 201.232 163.178 201.316 163.193C201.4 163.208 201.48 163.24 201.551 163.287C201.623 163.333 201.685 163.393 201.733 163.464C201.782 163.534 201.816 163.613 201.834 163.696C201.852 163.78 201.853 163.866 201.838 163.95C201.822 164.034 201.79 164.114 201.744 164.186C201.698 164.258 201.637 164.32 201.567 164.368C201.497 164.417 201.418 164.451 201.334 164.469V164.469ZM198.856 154.423C198.894 154.502 198.916 154.587 198.92 154.674C198.924 154.761 198.911 154.848 198.881 154.93C198.851 155.012 198.805 155.086 198.745 155.15C198.686 155.214 198.614 155.265 198.534 155.3C198.454 155.335 198.369 155.354 198.281 155.356C198.194 155.357 198.108 155.341 198.027 155.309C197.946 155.276 197.873 155.228 197.811 155.166C197.749 155.105 197.7 155.031 197.667 154.951C197.604 154.794 197.603 154.619 197.667 154.462C197.73 154.305 197.852 154.179 198.006 154.111C198.161 154.042 198.336 154.036 198.495 154.095C198.653 154.153 198.783 154.271 198.856 154.423V154.423ZM198.095 156.228L199.493 155.607C199.637 155.543 199.749 155.424 199.806 155.278C199.862 155.131 199.858 154.968 199.794 154.825L199.506 154.173L200.638 154.173L200.638 159.277L198.353 159.277C198.07 158.287 197.982 157.251 198.093 156.227L198.095 156.228ZM204.231 155.733L204.231 154.229L206.929 154.229C207.069 154.229 207.913 154.389 207.913 155.021C207.913 155.546 207.265 155.733 206.732 155.733L204.231 155.733V155.733ZM214.032 157.087C214.032 157.286 214.024 157.484 214.01 157.679L213.19 157.679C213.108 157.679 213.074 157.733 213.074 157.814L213.074 158.19C213.074 159.076 212.574 159.27 212.136 159.318C211.719 159.365 211.257 159.144 211.2 158.888C210.954 157.505 210.544 157.21 209.896 156.699C210.7 156.189 211.536 155.436 211.536 154.428C211.536 153.34 210.79 152.655 210.282 152.32C209.568 151.85 208.779 151.755 208.567 151.755L200.086 151.755C201.258 150.445 202.83 149.558 204.557 149.233L205.557 150.282C205.611 150.338 205.675 150.383 205.746 150.414C205.817 150.446 205.894 150.463 205.971 150.464C206.049 150.466 206.126 150.453 206.199 150.424C206.271 150.396 206.337 150.354 206.394 150.301L207.512 149.231C208.652 149.444 209.732 149.904 210.676 150.577C211.621 151.249 212.408 152.12 212.983 153.127L212.217 154.856C212.154 155 212.15 155.163 212.206 155.31C212.263 155.456 212.375 155.574 212.519 155.638L213.993 156.293C214.018 156.555 214.032 156.82 214.032 157.087ZM205.558 148.341C205.62 148.282 205.692 148.236 205.772 148.206C205.851 148.175 205.936 148.16 206.021 148.162C206.107 148.164 206.191 148.183 206.268 148.218C206.346 148.252 206.417 148.302 206.476 148.363C206.534 148.425 206.581 148.498 206.611 148.577C206.642 148.657 206.657 148.742 206.655 148.827C206.653 148.912 206.634 148.996 206.599 149.074C206.565 149.152 206.515 149.222 206.454 149.281C206.392 149.34 206.319 149.386 206.24 149.417C206.16 149.447 206.075 149.462 205.99 149.46C205.905 149.458 205.821 149.439 205.743 149.405C205.665 149.37 205.595 149.321 205.536 149.259C205.477 149.197 205.431 149.125 205.4 149.045C205.37 148.966 205.355 148.881 205.357 148.796C205.359 148.71 205.378 148.626 205.412 148.548C205.447 148.47 205.496 148.4 205.558 148.341V148.341ZM213.156 154.455C213.189 154.375 213.238 154.302 213.3 154.241C213.361 154.181 213.435 154.133 213.515 154.101C213.595 154.068 213.681 154.053 213.768 154.054C213.854 154.056 213.94 154.075 214.019 154.11C214.098 154.145 214.169 154.195 214.229 154.258C214.288 154.321 214.334 154.395 214.365 154.477C214.395 154.558 214.409 154.644 214.405 154.73C214.402 154.817 214.381 154.902 214.344 154.98C214.272 155.134 214.142 155.253 213.983 155.312C213.824 155.372 213.648 155.367 213.493 155.298C213.338 155.229 213.216 155.102 213.153 154.945C213.09 154.787 213.091 154.611 213.156 154.455V154.455Z" fill="#444444"/>
</g>
</g>
</g>
<defs>
<filter id="filter0_i" x="195.115" y="146.227" width="21.8587" height="25.8587" filterUnits="userSpaceOnUse" color-interpolation-filters="sRGB">
<feFlood flood-opacity="0" result="BackgroundImageFix"/>
<feBlend mode="normal" in="SourceGraphic" in2="BackgroundImageFix" result="shape"/>
<feColorMatrix in="SourceAlpha" type="matrix" values="0 0 0 0 0 0 0 0 0 0 0 0 0 0 0 0 0 0 127 0" result="hardAlpha"/>
<feOffset dy="4"/>
<feGaussianBlur stdDeviation="2"/>
<feComposite in2="hardAlpha" operator="arithmetic" k2="-1" k3="1"/>
<feColorMatrix type="matrix" values="0 0 0 0 0.973056 0 0 0 0 0.580745 0 0 0 0 0.218611 0 0 0 0.96 0"/>
<feBlend mode="normal" in2="shape" result="effect1_innerShadow"/>
</filter>
<clipPath id="clip0">
<rect width="162.847" height="162.847" fill="white" transform="translate(182 109.633) rotate(-13)"/>
</clipPath>
<clipPath id="clip1">
<rect width="21.8587" height="21.8587" fill="white" transform="translate(195.115 146.227)"/>
</clipPath>
</defs>
</svg>
