<svg width="400" height="400" viewBox="0 0 400 400" fill="none" xmlns="http://www.w3.org/2000/svg">
<rect width="400" height="400" rx="10" fill="#FFDA55"/>
<path d="M0 0V400H400V0H0ZM217.791 299.884C217.791 349.07 193.953 365.465 158.605 365.465C149.367 365.453 140.187 364.001 131.395 361.163L135.349 334.884C141.784 337.088 148.546 338.189 155.349 338.14C173.953 338.14 185.233 329.767 185.233 298.837V184.419H217.791V299.884ZM293.605 365.233C276.859 365.264 260.35 361.276 245.465 353.605L252.674 326.628C265.818 334.04 280.61 338.038 295.698 338.256C316.279 338.372 327.907 328.605 327.907 314.07C327.907 299.535 319.07 293.023 296.512 284.535C267.093 274.07 248.372 258.256 248.372 232.791C248.372 203.605 272.674 181.628 311.395 181.628C326.117 181.18 340.737 184.207 354.07 190.465L346.279 216.628C335.261 211.025 323.058 208.154 310.698 208.256C290 208.256 281.279 219.186 281.279 229.651C281.279 243.372 291.628 249.767 315.349 258.837C346.279 270.465 361.163 286.163 361.163 311.744C361.163 340.465 339.535 365.233 293.605 365.233Z" fill="#0D0D0D"/>
<g clip-path="url(#clip0)">
<path d="M283.835 172.153C268.682 175.651 255.374 180.492 245.692 185.608L245.549 184.99C235.941 190.429 230.353 196.193 231.437 200.89C231.608 201.63 231.954 202.318 232.431 202.961L231.778 204.95C231.778 204.95 231.165 206.164 233.162 207.967C234.923 209.557 243.267 215.444 247.663 218.52C249.626 220.165 250.93 221.156 250.991 221.017C251.088 220.796 249.151 217.305 245.181 213.729C243.259 211.759 240.863 209.115 239.347 207.104C242.509 208.086 246.566 208.702 251.091 208.994L251.086 208.975C262.032 209.33 276.115 207.846 291.268 204.348C308.61 200.344 323.662 194.553 333.308 188.676L328.491 167.81C317.244 166.755 301.177 168.149 283.835 172.153Z" fill="#A52B00"/>
<path d="M347.235 177.901L344.676 174.921C344.655 174.79 344.633 174.659 344.603 174.53C343.715 170.686 338.56 168.146 330.607 166.994L335.327 187.439C338.427 185.329 340.849 183.214 342.457 181.168C342.373 183.457 341.39 188.274 340.513 191.705C338.919 196.691 338.856 200.725 339.021 200.886C339.125 200.987 339.723 199.518 340.561 197.168C342.687 192.458 346.703 183.476 347.408 181.262C348.207 178.751 347.235 177.901 347.235 177.901Z" fill="#A52B00"/>
<path d="M357.553 175.498L344.048 170.269C343.857 169.942 343.666 169.615 343.472 169.291L346.125 163.286C346.396 162.675 346.319 161.98 345.928 161.445C345.537 160.913 344.882 160.618 344.199 160.666L337.481 161.149C337.12 160.735 336.75 160.33 336.379 159.93L337.776 153.554C337.921 152.903 337.705 152.237 337.211 151.791C336.718 151.343 336.017 151.176 335.353 151.355L328.823 153.095C328.388 152.764 327.948 152.439 327.503 152.123L327.593 145.613C327.602 144.953 327.258 144.342 326.68 143.997C326.105 143.653 325.379 143.623 324.763 143.92L318.688 146.852C318.195 146.61 317.696 146.374 317.193 146.145L315.964 139.768C315.841 139.122 315.377 138.588 314.738 138.361C314.1 138.132 313.382 138.241 312.835 138.647L307.46 142.648C306.92 142.504 306.377 142.364 305.832 142.233L303.336 136.245C303.083 135.638 302.518 135.204 301.844 135.101C301.172 134.997 300.485 135.24 300.031 135.739L295.551 140.656C294.989 140.617 294.426 140.585 293.858 140.56L290.195 135.181C289.823 134.633 289.182 134.315 288.496 134.342C287.812 134.37 287.187 134.734 286.841 135.307L283.421 140.969C282.865 141.037 282.31 141.11 281.756 141.192L277.048 136.612C276.571 136.149 275.875 135.96 275.207 136.114C274.54 136.268 273.996 136.743 273.773 137.369L271.549 143.548C271.014 143.718 270.481 143.896 269.953 144.079L264.396 140.488C263.834 140.126 263.11 140.073 262.485 140.347C261.858 140.625 261.42 141.19 261.326 141.846L260.391 148.287C259.892 148.557 259.401 148.834 258.911 149.115L252.73 146.66C252.102 146.409 251.378 146.492 250.818 146.882C250.26 147.269 249.941 147.907 249.98 148.563L250.362 155.039C249.929 155.396 249.502 155.759 249.079 156.126L242.494 154.887C241.825 154.76 241.129 154.979 240.659 155.464C240.185 155.948 240.001 156.631 240.174 157.265L241.864 163.536C241.513 163.962 241.169 164.392 240.83 164.827L234.086 164.854C233.401 164.859 232.762 165.203 232.395 165.764C232.026 166.328 231.985 167.028 232.282 167.618L235.213 173.43C234.955 173.91 234.702 174.393 234.457 174.881L227.825 176.18C227.156 176.315 226.593 176.767 226.345 177.387C226.096 178.004 226.197 178.697 226.609 179.219L230.662 184.337C230.504 184.859 230.348 185.385 230.204 185.916L223.954 188.427C223.318 188.682 222.861 189.233 222.741 189.885C222.624 190.538 222.863 191.195 223.372 191.626L228.389 195.86C228.381 195.957 228.375 196.055 228.366 196.152L219.971 209.271C219.971 209.271 218.587 210.854 221.657 213.117C224.366 215.112 237.598 222.446 244.577 226.278C247.627 228.337 249.676 229.575 249.819 229.394C250.043 229.107 247.492 224.669 241.386 220.18C236.515 216.012 229.916 209.396 230.839 208.245C230.839 208.245 231.777 206.446 234.104 204.769C234.215 204.817 233.991 204.723 234.104 204.769C234.104 204.769 293.829 215.33 339.031 180.957C344.574 178.674 348.72 180.713 348.72 180.713C350.071 181.078 348.79 189.744 347.443 195.595C345.337 202.372 345.902 207.151 346.235 207.244C346.445 207.304 347.302 205.234 348.458 201.987C351.597 195.228 357.511 182.358 358.442 179.349C359.498 175.937 357.553 175.498 357.553 175.498Z" fill="#F74C00"/>
<path d="M310.424 201.803C310.595 201.592 310.682 201.469 310.682 201.469L292.525 204.056C302.979 183.036 317.901 194.602 319.503 195.889L320.34 199.514L310.424 201.803Z" fill="black"/>
<path d="M235.544 191.534C235.544 191.534 223.093 181.458 222.606 175.122C222.606 175.122 243.588 168.712 228.141 148.726L221.811 165.114C221.811 165.114 217.727 157.781 221.207 148.654C221.207 148.654 199.935 150.388 216.445 172.365C216.445 172.365 214.464 180.375 230.579 196.508L235.544 191.534Z" fill="#F74C00"/>
<path d="M295.548 177.124C295.548 177.124 299.717 170.386 306.418 174.615C306.418 174.615 312.377 180.941 308.95 185.582C308.95 185.582 303.143 192.314 298.08 188.092C298.08 188.092 292.492 185.146 295.548 177.124Z" fill="black"/>
<path d="M302.333 177.703C302.826 179.838 301.86 181.884 300.175 182.273C298.491 182.662 296.725 181.246 296.233 179.111C295.74 176.975 296.706 174.929 298.39 174.54C300.075 174.151 301.84 175.567 302.333 177.703Z" fill="white"/>
<path d="M270.953 181.224C270.953 181.224 279.398 175.268 283.903 183.17C283.903 183.17 288.853 192.45 278.66 195.392C278.66 195.392 264.959 196.095 270.953 181.224Z" fill="black"/>
<path d="M276.486 183.816C276.994 186.018 275.998 188.129 274.26 188.53C272.523 188.931 270.702 187.471 270.194 185.269C269.685 183.066 270.682 180.956 272.419 180.555C274.156 180.153 275.977 181.614 276.486 183.816Z" fill="white"/>
<path d="M333.715 178.11C333.715 178.11 333.417 185.705 323.043 196.008L319.817 197.525C319.817 197.525 304.572 181.605 293.813 205.996C293.813 205.996 298.062 202.274 311.794 202.441C311.794 202.441 307.761 212.256 295.653 214.778C295.653 214.778 310.145 224.876 323.458 202.385C323.458 202.385 340.502 191.479 338.734 176.951L333.715 178.11Z" fill="#F74C00"/>
</g>
<defs>
<clipPath id="clip0">
<rect width="162.847" height="150.053" fill="white" transform="translate(182 125.633) rotate(-13)"/>
</clipPath>
</defs>
</svg>
